%TF.GenerationSoftware,KiCad,Pcbnew,4.0.7*%
%TF.CreationDate,2018-04-16T11:03:50-07:00*%
%TF.ProjectId,ds18b20board,64733138623230626F6172642E6B6963,rev?*%
%TF.FileFunction,Copper,L1,Top,Signal*%
%FSLAX46Y46*%
G04 Gerber Fmt 4.6, Leading zero omitted, Abs format (unit mm)*
G04 Created by KiCad (PCBNEW 4.0.7) date 04/16/18 11:03:50*
%MOMM*%
%LPD*%
G01*
G04 APERTURE LIST*
%ADD10C,0.100000*%
%ADD11C,1.600000*%
%ADD12C,1.520000*%
%ADD13R,1.520000X1.520000*%
%ADD14R,1.700000X1.700000*%
%ADD15O,1.700000X1.700000*%
%ADD16O,1.600000X1.600000*%
%ADD17R,1.600000X1.600000*%
%ADD18R,2.500000X1.000000*%
%ADD19R,1.000000X1.800000*%
%ADD20C,0.600000*%
%ADD21C,0.250000*%
G04 APERTURE END LIST*
D10*
D11*
X128000000Y-92500000D03*
X130500000Y-92500000D03*
X110000000Y-79500000D03*
X112500000Y-79500000D03*
D12*
X120540000Y-84500000D03*
X123080000Y-84500000D03*
D13*
X118000000Y-84500000D03*
D14*
X121000000Y-91500000D03*
D15*
X118460000Y-91500000D03*
D14*
X132000000Y-58500000D03*
D15*
X132000000Y-61040000D03*
D14*
X140000000Y-58500000D03*
D15*
X140000000Y-61040000D03*
X140000000Y-63580000D03*
D11*
X142000000Y-79500000D03*
D16*
X134380000Y-79500000D03*
D11*
X148000000Y-68500000D03*
D16*
X148000000Y-60880000D03*
D17*
X134000000Y-72500000D03*
D16*
X141620000Y-72500000D03*
D18*
X109400000Y-59000000D03*
X109400000Y-61000000D03*
X109400000Y-63000000D03*
X109400000Y-65000000D03*
X109400000Y-67000000D03*
X109400000Y-69000000D03*
X109400000Y-71000000D03*
X109400000Y-73000000D03*
D19*
X112000000Y-74500000D03*
X114000000Y-74500000D03*
X116000000Y-74500000D03*
X118000000Y-74500000D03*
X120000000Y-74500000D03*
X122000000Y-74500000D03*
D18*
X124600000Y-73000000D03*
X124600000Y-71000000D03*
X124600000Y-69000000D03*
X124600000Y-67000000D03*
X124600000Y-65000000D03*
X124600000Y-63000000D03*
X124600000Y-61000000D03*
X124600000Y-59000000D03*
D20*
X129000000Y-73000000D03*
X129000000Y-71000000D03*
X136500000Y-58500000D03*
X122000000Y-94500000D03*
X123000000Y-79500000D03*
X127000000Y-67000000D03*
X105000000Y-65000000D03*
X105000000Y-59000000D03*
D21*
X124600000Y-73000000D02*
X129000000Y-73000000D01*
X124600000Y-71000000D02*
X129000000Y-71000000D01*
X140000000Y-58500000D02*
X136500000Y-58500000D01*
X112500000Y-79500000D02*
X113000000Y-79500000D01*
X113000000Y-79500000D02*
X118000000Y-84500000D01*
X122000000Y-94500000D02*
X119000000Y-94500000D01*
X119000000Y-92040000D02*
X119000000Y-94500000D01*
X119000000Y-94500000D02*
X119000000Y-96500000D01*
X124000000Y-96500000D02*
X128000000Y-92500000D01*
X124000000Y-96500000D02*
X119000000Y-96500000D01*
X119000000Y-92040000D02*
X118460000Y-91500000D01*
X118460000Y-91500000D02*
X118460000Y-84960000D01*
X118460000Y-84960000D02*
X118000000Y-84500000D01*
X141620000Y-72500000D02*
X144500000Y-72500000D01*
X148000000Y-68500000D02*
X144500000Y-68500000D01*
X130500000Y-92500000D02*
X144500000Y-92500000D01*
X144420000Y-63580000D02*
X140000000Y-63580000D01*
X144500000Y-63500000D02*
X144420000Y-63580000D01*
X144500000Y-92500000D02*
X144500000Y-72500000D01*
X144500000Y-72500000D02*
X144500000Y-68500000D01*
X144500000Y-68500000D02*
X144500000Y-63500000D01*
X124600000Y-67000000D02*
X127000000Y-67000000D01*
X123000000Y-79500000D02*
X123000000Y-80500000D01*
X109400000Y-63000000D02*
X103000000Y-63000000D01*
X103000000Y-76500000D02*
X109400000Y-76500000D01*
X103000000Y-63000000D02*
X103000000Y-76500000D01*
X109400000Y-76500000D02*
X119000000Y-76500000D01*
X119000000Y-76500000D02*
X123000000Y-80500000D01*
X123000000Y-80500000D02*
X126000000Y-83500000D01*
X109400000Y-73000000D02*
X109400000Y-76500000D01*
X109400000Y-76500000D02*
X109400000Y-78900000D01*
X109400000Y-78900000D02*
X110000000Y-79500000D01*
X126000000Y-83500000D02*
X124080000Y-83500000D01*
X124080000Y-83500000D02*
X123080000Y-84500000D01*
X123080000Y-84500000D02*
X123080000Y-85080000D01*
X123080000Y-85080000D02*
X130500000Y-92500000D01*
X121000000Y-91500000D02*
X121000000Y-84960000D01*
X121000000Y-84960000D02*
X120540000Y-84500000D01*
X124600000Y-59000000D02*
X131500000Y-59000000D01*
X131500000Y-59000000D02*
X132000000Y-58500000D01*
X124600000Y-61000000D02*
X131960000Y-61000000D01*
X131960000Y-61000000D02*
X132000000Y-61040000D01*
X148000000Y-60880000D02*
X140160000Y-60880000D01*
X140160000Y-60880000D02*
X140000000Y-61040000D01*
X124600000Y-63000000D02*
X133500000Y-63000000D01*
X135460000Y-61040000D02*
X140000000Y-61040000D01*
X133500000Y-63000000D02*
X135460000Y-61040000D01*
X124600000Y-65000000D02*
X130500000Y-65000000D01*
X131000000Y-65000000D02*
X131000000Y-69500000D01*
X130500000Y-65000000D02*
X131000000Y-65000000D01*
X131000000Y-69500000D02*
X131000000Y-76120000D01*
X131000000Y-76120000D02*
X134380000Y-79500000D01*
X131000000Y-69500000D02*
X134000000Y-72500000D01*
X109400000Y-59000000D02*
X105000000Y-59000000D01*
X105000000Y-65000000D02*
X109400000Y-65000000D01*
M02*
