M48
;DRILL file {KiCad 4.0.7} date 04/16/18 11:03:52
;FORMAT={-:-/ absolute / inch / decimal}
FMAT,2
INCH,TZ
T1C0.016
T2C0.031
T3C0.039
%
G90
G05
M72
T1
X4.1339Y-2.3228
X4.1339Y-2.5591
X4.8031Y-3.7205
X4.8425Y-3.1299
X5.Y-2.6378
X5.0787Y-2.7953
X5.0787Y-2.874
X5.374Y-2.3031
T2
X4.3307Y-3.1299
X4.4291Y-3.1299
X4.6457Y-3.3268
X4.7457Y-3.3268
X4.8457Y-3.3268
X5.0394Y-3.6417
X5.1378Y-3.6417
X5.2756Y-2.8543
X5.2906Y-3.1299
X5.5756Y-2.8543
X5.5906Y-3.1299
X5.8268Y-2.3969
X5.8268Y-2.6969
T3
X4.6638Y-3.6024
X4.7638Y-3.6024
X5.1969Y-2.3031
X5.1969Y-2.4031
X5.5118Y-2.3031
X5.5118Y-2.4031
X5.5118Y-2.5031
T0
M30
