%TF.GenerationSoftware,KiCad,Pcbnew,4.0.7*%
%TF.CreationDate,2018-04-16T11:03:50-07:00*%
%TF.ProjectId,ds18b20board,64733138623230626F6172642E6B6963,rev?*%
%TF.FileFunction,Copper,L2,Bot,Signal*%
%FSLAX46Y46*%
G04 Gerber Fmt 4.6, Leading zero omitted, Abs format (unit mm)*
G04 Created by KiCad (PCBNEW 4.0.7) date 04/16/18 11:03:50*
%MOMM*%
%LPD*%
G01*
G04 APERTURE LIST*
%ADD10C,0.100000*%
%ADD11C,1.600000*%
%ADD12C,1.520000*%
%ADD13R,1.520000X1.520000*%
%ADD14R,1.700000X1.700000*%
%ADD15O,1.700000X1.700000*%
%ADD16O,1.600000X1.600000*%
%ADD17R,1.600000X1.600000*%
%ADD18C,0.600000*%
%ADD19C,0.250000*%
G04 APERTURE END LIST*
D10*
D11*
X128000000Y-92500000D03*
X130500000Y-92500000D03*
X110000000Y-79500000D03*
X112500000Y-79500000D03*
D12*
X120540000Y-84500000D03*
X123080000Y-84500000D03*
D13*
X118000000Y-84500000D03*
D14*
X121000000Y-91500000D03*
D15*
X118460000Y-91500000D03*
D14*
X132000000Y-58500000D03*
D15*
X132000000Y-61040000D03*
D14*
X140000000Y-58500000D03*
D15*
X140000000Y-61040000D03*
X140000000Y-63580000D03*
D11*
X142000000Y-79500000D03*
D16*
X134380000Y-79500000D03*
D11*
X148000000Y-68500000D03*
D16*
X148000000Y-60880000D03*
D17*
X134000000Y-72500000D03*
D16*
X141620000Y-72500000D03*
D18*
X129000000Y-73000000D03*
X129000000Y-71000000D03*
X136500000Y-58500000D03*
X122000000Y-94500000D03*
X123000000Y-79500000D03*
X127000000Y-67000000D03*
X105000000Y-65000000D03*
X105000000Y-59000000D03*
D19*
X129000000Y-71000000D02*
X129000000Y-73000000D01*
X129000000Y-73000000D02*
X129000000Y-85500000D01*
X135500000Y-64500000D02*
X129000000Y-71000000D01*
X135500000Y-59500000D02*
X135500000Y-64500000D01*
X136500000Y-58500000D02*
X135500000Y-59500000D01*
X142000000Y-79500000D02*
X142000000Y-85500000D01*
X142000000Y-85500000D02*
X129000000Y-85500000D01*
X129000000Y-85500000D02*
X128000000Y-85500000D01*
X128000000Y-88500000D02*
X122000000Y-94500000D01*
X128000000Y-85500000D02*
X128000000Y-88500000D01*
X123000000Y-71000000D02*
X123000000Y-79500000D01*
X127000000Y-67000000D02*
X123000000Y-71000000D01*
X105000000Y-59000000D02*
X105000000Y-65000000D01*
M02*
